<svg width="100" height="100" viewBox="0 0 100 100" fill="none" xmlns="http://www.w3.org/2000/svg">
<rect width="100" height="100" fill="#454D66"/>
<path d="M50 5C25.147 5 5 25.147 5 50C5 74.853 25.147 95 50 95C74.853 95 95 74.853 95 50C95 25.147 74.853 5 50 5ZM50 25.226C59.941 25.226 68 33.445 68 43.583C68 53.721 59.941 61.94 50 61.94C40.059 61.94 32 53.721 32 43.583C32 33.445 40.059 25.226 50 25.226ZM50 89C39.219 89 29.447 84.602 22.381 77.507C28.275 71.782 38.442 68 50 68C61.558 68 71.725 71.782 77.619 77.507C70.553 84.602 60.781 89 50 89Z" fill="white"/>
</svg>
