<svg xmlns="http://www.w3.org/2000/svg" xmlns:xlink="http://www.w3.org/1999/xlink" version="1.1" x="0px" y="0px" viewBox="0 0 100 100" style="enable-background:new 0 0 100 100;" xml:space="preserve"><path d="M30.45,27.67V21.4c0-1.07-0.86-1.96-1.96-1.96c-1.07,0-1.96,0.89-1.96,1.96v6.27c-4.86,0.91-8.54,5.2-8.54,10.32  c0,5.12,3.68,9.43,8.54,10.35v35.35c0,1.07,0.89,1.96,1.96,1.96c1.1,0,1.96-0.89,1.96-1.96V48.34c4.86-0.91,8.57-5.23,8.57-10.35  C39.02,32.87,35.31,28.59,30.45,27.67z M30.45,44.32c-0.6,0.18-1.28,0.29-1.96,0.29c-0.68,0-1.33-0.1-1.96-0.29  c-2.67-0.84-4.62-3.34-4.62-6.32c0-2.95,1.96-5.46,4.62-6.3c0.63-0.18,1.28-0.29,1.96-0.29c0.68,0,1.36,0.1,1.96,0.29  c2.69,0.84,4.65,3.34,4.65,6.3C35.1,40.97,33.14,43.48,30.45,44.32z"/><path d="M51.93,56.88V21.4c0-1.07-0.89-1.96-1.96-1.96c-1.07,0-1.96,0.89-1.96,1.96v35.48c-4.86,0.91-8.57,5.2-8.57,10.32  c0,5.12,3.71,9.43,8.57,10.35v6.14c0,1.07,0.89,1.96,1.96,1.96c1.07,0,1.96-0.89,1.96-1.96v-6.14c4.86-0.91,8.57-5.23,8.57-10.35  C60.5,62.08,56.79,57.8,51.93,56.88z M51.93,73.53c-0.6,0.18-1.28,0.29-1.96,0.29c-0.68,0-1.36-0.1-1.96-0.29  c-2.69-0.84-4.65-3.34-4.65-6.32c0-2.95,1.96-5.46,4.65-6.3c0.6-0.18,1.28-0.29,1.96-0.29c0.68,0,1.36,0.1,1.96,0.29  c2.69,0.84,4.65,3.34,4.65,6.3C56.58,70.18,54.62,72.69,51.93,73.53z"/><path d="M73.4,39.09V21.4c0-1.07-0.89-1.96-1.96-1.96c-1.1,0-1.96,0.89-1.96,1.96v17.69c-4.86,0.91-8.57,5.23-8.57,10.35  s3.71,9.43,8.57,10.35v23.91c0,1.07,0.86,1.96,1.96,1.96c1.07,0,1.96-0.89,1.96-1.96V59.78c4.86-0.91,8.54-5.23,8.54-10.35  S78.26,40.01,73.4,39.09z M73.4,55.73c-0.63,0.21-1.28,0.31-1.96,0.31c-0.68,0-1.36-0.1-1.96-0.31c-2.69-0.84-4.65-3.34-4.65-6.3  c0-2.98,1.96-5.49,4.65-6.32c0.6-0.18,1.28-0.29,1.96-0.29c0.68,0,1.33,0.1,1.96,0.29c2.67,0.84,4.62,3.34,4.62,6.32  C78.03,52.39,76.07,54.9,73.4,55.73z"/></svg>