<svg width="250" height="243" viewBox="0 0 250 243" fill="none" xmlns="http://www.w3.org/2000/svg">
<path d="M173.821 5.06105L184.823 8.02913C186.232 8.41696 187.216 9.94106 186.98 11.3682L185.292 21.4473C187.254 23.1228 188.743 25.4961 189.418 27.7545C191.172 22.4374 194.401 18.2192 197.92 14.7382C202.363 10.3435 207.305 8.24928 211.83 7.93636C216.192 7.63469 220.157 8.99448 222.864 11.4918C225.882 10.2528 229.455 9.25169 232.335 9.26576C234.998 9.30446 237.803 10.1637 239.93 12.203C241.461 14.3205 242.179 17.2894 241.962 19.5304C241.712 21.8319 240.878 24.0078 239.743 26.1159C237.473 30.3319 234.025 34.3387 230.928 37.8026C225.726 43.6213 218.556 45.8046 210.861 46.1195C213.007 46.905 214.895 48.1808 216.425 49.8913C219.703 53.5565 221.492 58.8901 222.02 65.1029C222.214 70.3376 222.476 75.7511 221.488 80.2216C220.51 84.4555 218.518 88.2749 214.956 90.3007C214.067 92.7558 212.739 94.3347 210.048 95C210.663 93.7838 210.877 92.568 210.736 91.3518C206.735 91.5499 203.113 90.2551 200.108 88.3837C196.77 86.1074 193.75 83.1983 191.419 80.3142C186.814 73.9377 186.873 67.4139 187.605 61.3618C184.801 61.3718 182.164 60.8131 180.01 59.2594C179.989 59.2394 179.968 59.2184 179.947 59.1974C176.602 56.624 175.526 52.3803 176.29 48.5617C176.557 47.227 177.019 45.9179 177.634 44.6353C175.833 45.0587 173.994 45.2632 172.195 45.3154C167.535 45.4506 163.043 44.6093 159.974 41.76C158.5 39.9434 157.943 37.3722 158.004 35.3909C158.086 33.2812 158.613 31.0994 159.505 28.9601C161.289 24.6815 164.473 20.4502 169.195 18.5718C169.946 18.3358 170.75 18.1177 171.414 17.9534L163.225 15.7275C161.818 15.3706 160.805 13.8865 160.995 12.463C161.186 11.0396 162.554 9.86707 164.006 9.88411C167.913 10.6806 171.91 11.9207 175.821 12.9758C177.087 13.3136 178.045 14.5545 178.041 15.8512V17.9226C178.611 18.0396 179.177 18.18 179.728 18.3555L180.635 13.0377L172.227 10.7807C170.821 10.4239 169.817 8.92689 170.007 7.50344C170.47 5.54319 172.024 4.76467 173.821 5.06099L173.821 5.06105ZM213.33 13.8107C210.152 13.6942 206.175 14.9518 202.171 18.9121C197.621 24.2959 194.907 29.6622 194.378 33.673C202.041 24.889 206.688 20.9525 211.767 17.7063C213.15 16.8228 214.9 15.7085 216.831 14.5836C215.612 14.1566 214.391 13.8571 213.33 13.8107ZM232.272 15.202C225.936 15.6581 220.277 19.328 215.018 22.684C211.01 25.2456 207.162 28.0885 201.202 35.4838C202.943 36.5926 204.436 38.4542 205.141 40.0905C214.11 40.7156 221.525 39.3583 226.427 33.8761C229.446 30.4998 232.622 26.6903 234.429 23.3333C235.333 21.6547 235.891 20.0914 236.023 18.8811C236.139 17.8175 235.955 17.0579 235.523 16.315C234.647 15.5633 233.698 15.2227 232.272 15.202ZM171.414 24.1062C168.896 25.1081 166.387 28.0858 165.069 31.2481C164.303 33.3902 163.65 35.3842 164.35 37.5553C165.557 38.5053 168.561 39.4795 172.008 39.3795C175.585 39.2757 179.385 38.1442 181.791 36.3186C184.69 33.504 184.602 29.7101 182.448 27.0433C180.229 23.9704 175.179 22.7748 171.414 24.1062ZM178.603 25.683C180.725 27.432 180.368 30.5716 177.822 32.6704C175.276 34.7691 171.504 35.0377 169.382 33.2887C167.26 31.5397 167.586 28.431 170.132 26.3323C172.771 24.6561 176.151 23.718 178.603 25.683ZM205.391 49.2113C204.837 51.1203 203.947 53.0128 202.703 54.8073C200.118 58.5357 195.815 60.3258 191.669 61.0217C191.586 61.6411 191.517 62.2377 191.45 62.8458C194.729 62.0379 198.06 60.4376 200.765 58.2082C203.694 55.7934 205.884 52.7268 206.735 49.1803C206.291 49.1073 205.792 49.1813 205.391 49.2113V49.2113ZM210.58 50.2624C209.473 54.6921 206.752 58.447 203.328 61.2691C199.796 64.1807 195.497 66.1354 191.2 66.958C191.201 67.6186 191.237 68.2832 191.294 68.9367C195.712 68.123 200.348 66.187 204.078 63.3714C208.259 60.2151 211.265 56.0544 211.955 51.159C211.508 50.7987 210.997 50.5178 210.58 50.2624H210.58ZM215.143 54.9619C213.624 59.6286 210.406 63.534 206.485 66.4941C202.216 69.7163 197.079 71.8754 192.044 72.8013C192.281 73.5622 192.555 74.3281 192.919 75.0892C197.737 74.4528 202.999 72.4108 207.391 69.3694C211.621 66.4412 215.024 62.6241 216.644 58.3628C216.223 57.1174 215.711 55.9721 215.143 54.9619ZM217.956 64.5154C215.929 67.6707 213.094 70.2473 209.673 72.6158C205.295 75.6469 200.228 77.7345 195.263 78.6757C195.874 79.4004 196.544 80.132 197.264 80.8707C207.032 78.8886 213.759 75.2891 218.206 67.4835C218.135 66.4135 218.06 65.5382 217.956 64.5154H217.956ZM218.269 74.2235C213.836 79.2668 207.956 82.3073 200.89 84.1171C201.951 84.9031 203.145 85.5502 204.234 86.0958C209.088 86.0158 214.24 82.7892 217.894 77.7172C218.077 76.6035 218.195 75.4342 218.269 74.2235Z" fill="white"/>
<path d="M76.1792 5.06105L65.1766 8.02913C63.7681 8.41696 62.7836 9.94106 63.0198 11.3682L64.7077 21.4473C62.7461 23.1228 61.2574 25.4961 60.5817 27.7545C58.8282 22.4374 55.599 18.2192 52.0797 14.7382C47.6367 10.3435 42.6946 8.24928 38.1701 7.93636C33.8083 7.63469 29.8428 8.99448 27.1362 11.4918C24.1181 10.2528 20.5451 9.25169 17.6652 9.26576C15.0022 9.30446 12.1968 10.1637 10.0696 12.203C8.53944 14.3205 7.82117 17.2894 8.03786 19.5304C8.28838 21.8319 9.12221 24.0078 10.2571 26.1159C12.527 30.3319 15.9747 34.3387 19.0718 37.8026C24.2742 43.6213 31.4436 45.8046 39.1391 46.1195C36.9929 46.905 35.105 48.1808 33.5752 49.8913C30.2974 53.5565 28.5082 58.8901 27.9801 65.1029C27.7864 70.3376 27.5238 75.7511 28.5115 80.2216C29.4899 84.4555 31.4823 88.2749 35.0443 90.3007C35.9334 92.7558 37.2611 94.3347 39.9518 95C39.3369 93.7838 39.1231 92.568 39.2641 91.3518C43.2646 91.5499 46.8867 90.2551 49.8916 88.3837C53.23 86.1074 56.2498 83.1983 58.5812 80.3142C63.186 73.9377 63.1266 67.4139 62.3946 61.3618C65.1993 61.3718 67.8356 60.8131 69.9902 59.2594C70.0113 59.2394 70.0322 59.2184 70.0527 59.1974C73.3984 56.624 74.4736 52.3803 73.7098 48.5617C73.4429 47.227 72.9806 45.9179 72.3658 44.6353C74.1674 45.0587 76.0058 45.2632 77.8046 45.3154C82.4651 45.4506 86.9571 44.6093 90.0263 41.76C91.4995 39.9434 92.0566 37.3722 91.9955 35.3909C91.9136 33.2812 91.3871 31.0994 90.4951 28.9601C88.7111 24.6815 85.5266 20.4502 80.8053 18.5718C80.0536 18.3358 79.2497 18.1177 78.586 17.9534L86.7755 15.7275C88.1816 15.3706 89.1951 13.8865 89.0047 12.463C88.8144 11.0396 87.4456 9.86707 85.994 9.88411C82.0865 10.6806 78.0901 11.9207 74.1787 12.9758C72.9131 13.3136 71.9553 14.5545 71.9594 15.8512V17.9226C71.3888 18.0396 70.8235 18.18 70.2715 18.3555L69.365 13.0377L77.7733 10.7807C79.1794 10.4239 80.183 8.92689 79.9926 7.50344C79.5304 5.54319 77.9756 4.76467 76.1792 5.06099L76.1792 5.06105ZM36.6697 13.8107C39.8482 13.6942 43.8249 14.9518 47.8287 18.9121C52.3789 24.2959 55.0926 29.6622 55.6216 33.673C47.959 24.889 43.312 20.9525 38.2326 17.7063C36.8503 16.8228 35.1004 15.7085 33.1689 14.5836C34.3878 14.1566 35.6092 13.8571 36.6697 13.8107ZM17.7277 15.202C24.0639 15.6581 29.7233 19.328 34.9818 22.684C38.99 25.2456 42.8378 28.0885 48.7976 35.4838C47.0569 36.5926 45.5635 38.4542 44.8592 40.0905C35.8903 40.7156 28.4745 39.3583 23.5728 33.8761C20.554 30.4998 17.3783 26.6903 15.5709 23.3333C14.6672 21.6547 14.1085 20.0914 13.9768 18.8811C13.861 17.8175 14.0454 17.0579 14.4769 16.315C15.3531 15.5633 16.3019 15.2227 17.7277 15.202ZM78.586 24.1062C81.1041 25.1081 83.6127 28.0858 84.9313 31.2481C85.6968 33.3902 86.3499 35.3842 85.6502 37.5553C84.4428 38.5053 81.4388 39.4795 77.9921 39.3795C74.4145 39.2757 70.6148 38.1442 68.2085 36.3186C65.31 33.504 65.3977 29.7101 67.5521 27.0433C69.7705 23.9704 74.8205 22.7748 78.586 24.1062ZM71.3968 25.683C69.275 27.432 69.632 30.5716 72.1782 32.6704C74.7244 34.7691 78.4959 35.0377 80.6178 33.2887C82.7396 31.5397 82.4138 28.431 79.8676 26.3323C77.2288 24.6561 73.8491 23.718 71.3968 25.683ZM44.6091 49.2113C45.1629 51.1203 46.0531 53.0128 47.2973 54.8073C49.8824 58.5357 54.1853 60.3258 58.3312 61.0217C58.4145 61.6411 58.4827 62.2377 58.55 62.8458C55.2712 62.0379 51.9399 60.4376 49.2352 58.2082C46.3056 55.7934 44.1164 52.7268 43.265 49.1803C43.7092 49.1073 44.208 49.1813 44.6091 49.2113V49.2113ZM39.4204 50.2624C40.527 54.6921 43.2484 58.447 46.6721 61.2691C50.2044 64.1807 54.5034 66.1354 58.8 66.958C58.799 67.6186 58.7629 68.2832 58.7063 68.9367C54.2881 68.123 49.6519 66.187 45.922 63.3714C41.7407 60.2151 38.7353 56.0544 38.0451 51.159C38.4917 50.7987 39.0031 50.5178 39.4204 50.2624H39.4204ZM34.8568 54.9619C36.3758 59.6286 39.5935 63.534 43.5151 66.4941C47.7837 69.7163 52.9206 71.8754 57.9561 72.8013C57.7192 73.5622 57.4446 74.3281 57.0809 75.0892C52.2628 74.4528 47.0011 72.4108 42.6086 69.3694C38.3795 66.4412 34.9761 62.6241 33.3564 58.3628C33.7767 57.1174 34.2889 55.9721 34.8568 54.9619ZM32.0436 64.5154C34.0705 67.6707 36.9061 70.2473 40.3268 72.6158C44.7046 75.6469 49.7722 77.7345 54.7365 78.6757C54.1261 79.4004 53.456 80.132 52.7361 80.8707C42.9675 78.8886 36.2407 75.2891 31.7936 67.4835C31.8655 66.4135 31.9404 65.5382 32.0436 64.5154H32.0436ZM31.731 74.2235C36.1636 79.2668 42.0444 82.3073 49.1102 84.1171C48.0488 84.9031 46.8554 85.5502 45.7657 86.0958C40.9118 86.0158 35.76 82.7892 32.1061 77.7172C31.9227 76.6035 31.8049 75.4342 31.731 74.2235Z" fill="white"/>
<path d="M124.911 28.2586C164.05 28.2586 195.927 59.9587 195.927 99.0968C195.927 138.412 164.05 170.112 124.911 170.112C85.7733 170.112 54.0732 138.235 54.0732 99.0968C54.0732 59.9587 85.7733 28.2586 124.911 28.2586ZM127.922 164.091C125.089 166.039 121.724 167.102 118.359 167.633C131.995 168.873 145.809 166.039 157.851 159.486C157.32 159.486 156.966 159.309 156.434 159.309C147.226 162.143 137.485 163.56 127.922 164.091ZM85.0649 155.059C84.7107 151.34 86.6588 147.09 88.4297 143.902C81.7001 129.557 77.804 121.234 76.9185 119.463C70.8973 116.629 65.7615 112.91 61.8654 107.42C60.0944 109.545 58.8548 112.202 58.1464 115.035C61.8654 131.151 71.4286 145.319 85.0649 155.059ZM79.0437 118.754C80.1063 120.88 83.8253 129.203 90.3778 143.017C99.0555 145.142 107.733 146.913 116.411 147.975C121.724 142.131 126.505 135.756 130.756 128.849C126.682 121.234 123.14 113.264 119.953 105.295C110.744 103.878 101.535 102.285 92.3259 100.336C88.0756 106.535 83.4711 112.556 79.0437 118.754ZM132.704 130.089C128.453 136.818 123.672 143.371 118.182 149.215L128.099 161.966C137.485 161.434 146.871 160.018 155.726 157.184C161.216 151.694 166.175 145.673 169.894 138.766C165.466 135.224 161.924 129.734 159.268 124.953C150.945 128.318 141.558 129.557 132.704 130.089ZM160.862 123.359C163.341 127.963 167.06 133.808 171.311 137.172C176.978 134.339 181.936 130.62 186.187 126.015C190.26 115.213 191.854 105.472 190.968 96.6175C188.489 92.3672 185.301 88.294 181.405 85.1063C176.092 89.3566 170.425 93.4298 164.758 97.3259C164.227 105.826 163.164 115.213 160.862 123.359ZM92.68 98.2113C101.889 100.159 111.098 101.753 120.13 103.17C125.266 95.732 131.464 89.3566 138.548 83.8666C136.246 75.7202 134.12 67.2196 131.995 58.719C123.318 57.3022 114.64 55.8855 106.139 54.4687C98.8784 61.0213 91.9717 68.1051 85.7733 75.7202C88.2527 83.1582 90.5549 90.5962 92.68 98.2113ZM57.2609 110.785C58.1464 108.837 59.3861 106.889 60.9799 105.295C59.9174 94.8465 60.9799 88.4711 64.1676 78.5537C63.4593 75.366 63.2822 72.1783 63.2822 68.9906C56.9067 81.9185 54.7816 96.6175 57.2609 110.785ZM65.5844 64.5632C65.2302 68.6364 65.2302 72.8867 66.1157 76.9599C71.7828 74.3034 77.9811 72.8867 84.1795 74.3034C90.3778 66.6883 97.2845 59.6045 104.368 53.052C102.952 48.8017 103.129 43.4888 103.306 39.0614C98.17 39.0614 92.8571 40.124 87.8985 41.3636C78.6895 47.2078 71.0744 55.1771 65.5844 64.5632ZM134.12 58.1877C136.246 66.6883 138.371 75.1889 140.673 83.5124C148.642 85.8147 158.028 89.3566 163.872 95.3778C169.54 91.4817 175.03 87.5856 180.342 83.3353C179.28 74.6576 176.8 66.3341 172.373 58.8961C165.112 53.7603 157.497 49.8642 149.174 47.2078C144.038 50.5726 138.902 54.2916 134.12 58.1877ZM193.093 96.2633C193.802 101.753 193.447 107.597 192.208 113.796C193.802 106.889 194.333 95.3778 193.093 88.6482C193.093 90.242 193.27 94.8465 193.093 96.2633ZM149.705 45.0827C157.851 47.7391 165.643 51.6352 172.904 56.5939C173.967 55.1771 175.561 54.6458 177.332 54.6458C167.769 43.4888 155.018 35.5195 140.673 32.3318C138.725 32.3318 137.131 32.5089 135.714 32.863C141.381 35.6966 145.986 39.9469 149.705 45.0827ZM103.837 36.9362C112.338 33.0401 122.963 29.8524 132.881 31.6234C133.235 31.4463 133.589 31.2692 134.12 31.0921C120.484 29.144 106.316 31.6234 93.9197 37.8217C97.2845 37.2904 100.472 36.9362 103.837 36.9362Z" fill="white"/>
<path d="M19.79 202.6C19.79 211.607 20.28 218.793 21.26 224.16C19.7667 224.72 18.18 225 16.5 225C14.82 225 13.35 224.463 12.09 223.39C10.8767 222.317 10.27 220.847 10.27 218.98C10.27 217.067 10.5033 213.473 10.97 208.2C11.4367 202.927 11.67 198.843 11.67 195.95C11.67 188.81 11.18 181.927 10.2 175.3C13.6533 175.58 18.2967 175.72 24.13 175.72C29.9633 175.72 35.54 175.3 40.86 174.46C41.42 175.487 41.7 176.723 41.7 178.17C41.7 179.57 41.14 180.83 40.02 181.95C38.9467 183.023 37.5933 183.56 35.96 183.56C34.3733 183.56 31.8067 183.327 28.26 182.86C24.76 182.393 22.17 182.16 20.49 182.16C20.1167 187.247 19.8833 191.913 19.79 196.16C22.4967 196.44 25.4833 196.58 28.75 196.58C32.0633 196.58 34.9333 196.09 37.36 195.11C37.92 196.137 38.2 197.373 38.2 198.82C38.2 200.22 37.64 201.503 36.52 202.67C35.4467 203.79 34.1633 204.35 32.67 204.35C31.1767 204.35 29.03 204.07 26.23 203.51C23.43 202.903 21.2833 202.6 19.79 202.6ZM50.38 225.84C45.2467 225.84 41.4667 224.347 39.04 221.36C36.6133 218.327 35.4 214.127 35.4 208.76C35.4 203.347 37.01 198.657 40.23 194.69C43.45 190.723 47.58 188.74 52.62 188.74C62.98 188.74 68.16 194.573 68.16 206.24C68.16 211.7 66.48 216.343 63.12 220.17C59.76 223.95 55.5133 225.84 50.38 225.84ZM45.34 196.44C44.5 199.147 44.08 201.853 44.08 204.56C44.08 207.267 44.1733 209.367 44.36 210.86C44.5467 212.353 44.8967 213.847 45.41 215.34C46.4833 218.373 48.5833 219.89 51.71 219.89C54.8833 219.89 56.96 219.05 57.94 217.37C58.9667 215.69 59.48 213.1 59.48 209.6C59.48 199.66 57.1233 194.69 52.41 194.69C49.7033 194.69 47.3467 195.273 45.34 196.44ZM79.4054 225.84C74.2721 225.84 70.4921 224.347 68.0654 221.36C65.6387 218.327 64.4254 214.127 64.4254 208.76C64.4254 203.347 66.0354 198.657 69.2554 194.69C72.4754 190.723 76.6054 188.74 81.6454 188.74C92.0054 188.74 97.1854 194.573 97.1854 206.24C97.1854 211.7 95.5054 216.343 92.1454 220.17C88.7854 223.95 84.5387 225.84 79.4054 225.84ZM74.3654 196.44C73.5254 199.147 73.1054 201.853 73.1054 204.56C73.1054 207.267 73.1987 209.367 73.3854 210.86C73.5721 212.353 73.9221 213.847 74.4354 215.34C75.5087 218.373 77.6087 219.89 80.7354 219.89C83.9087 219.89 85.9854 219.05 86.9654 217.37C87.9921 215.69 88.5054 213.1 88.5054 209.6C88.5054 199.66 86.1487 194.69 81.4354 194.69C78.7287 194.69 76.3721 195.273 74.3654 196.44ZM98.4208 179.29C99.9141 178.543 101.431 178.17 102.971 178.17C104.511 178.17 105.747 178.66 106.681 179.64C107.661 180.62 108.151 182.067 108.151 183.98C108.151 185.893 108.034 188.063 107.801 190.49C111.301 190.49 114.637 190 117.811 189.02C118.371 189.953 118.651 191.05 118.651 192.31C118.651 193.523 118.091 194.527 116.971 195.32C115.897 196.067 114.801 196.44 113.681 196.44C112.561 196.44 111.301 196.3 109.901 196.02C108.501 195.74 107.591 195.577 107.171 195.53C107.124 195.95 106.984 196.79 106.751 198.05C106.564 199.31 106.401 200.407 106.261 201.34C105.887 203.907 105.701 206.66 105.701 209.6C105.701 215.993 107.777 219.19 111.931 219.19C113.471 219.19 115.244 218.653 117.251 217.58C117.857 218.467 118.161 219.61 118.161 221.01C118.161 222.41 117.391 223.507 115.851 224.3C114.357 225.047 112.561 225.42 110.461 225.42C102.247 225.42 98.1408 220.753 98.1408 211.42C98.1408 210.067 98.3274 207.617 98.7008 204.07C99.1208 200.523 99.3308 197.653 99.3308 195.46C97.0908 195.6 95.2941 195.997 93.9408 196.65C93.3808 195.81 93.1008 194.853 93.1008 193.78C93.1008 192.66 93.4974 191.75 94.2908 191.05C95.0841 190.303 96.0641 189.93 97.2308 189.93C98.3974 189.93 99.1674 189.953 99.5408 190C99.5874 189.627 99.6108 189.137 99.6108 188.53C99.6108 185.03 99.2141 181.95 98.4208 179.29ZM117.078 213.38L117.778 203.3C117.778 198.773 117.125 194.48 115.818 190.42C117.125 189.86 118.735 189.58 120.648 189.58C124.381 189.58 126.248 191.657 126.248 195.81C126.248 197.677 125.991 200.313 125.478 203.72C124.965 207.127 124.708 209.483 124.708 210.79C124.708 212.05 124.731 212.983 124.778 213.59C124.825 214.15 124.941 214.827 125.128 215.62C125.408 217.207 126.318 218 127.858 218C129.445 218 131.125 216.763 132.898 214.29C134.718 211.77 136.165 208.993 137.238 205.96C138.358 202.927 138.918 200.523 138.918 198.75C138.685 195.063 138.288 192.287 137.728 190.42C139.221 189.86 140.738 189.58 142.278 189.58C143.865 189.58 145.171 190.07 146.198 191.05C147.271 192.03 147.808 193.337 147.808 194.97C147.808 220.45 143.141 235.733 133.808 240.82C131.708 241.94 129.328 242.5 126.668 242.5C124.008 242.5 121.675 241.8 119.668 240.4C117.708 239 116.728 237.04 116.728 234.52C116.728 232.84 117.358 231.417 118.618 230.25C119.878 229.13 121.371 228.57 123.098 228.57C123.471 228.57 123.938 228.617 124.498 228.71C124.358 229.317 124.288 229.853 124.288 230.32C124.288 234.427 125.711 236.48 128.558 236.48C130.285 236.48 131.848 235.547 133.248 233.68C134.648 231.813 135.768 229.527 136.608 226.82C138.241 221.313 139.058 216.32 139.058 211.84C137.658 215.62 135.745 218.677 133.318 221.01C130.938 223.297 128.348 224.44 125.548 224.44C119.901 224.44 117.078 220.753 117.078 213.38ZM148.911 177.54C155.631 175.767 161.488 174.88 166.481 174.88C177.168 174.88 182.511 178.59 182.511 186.01C182.511 190.537 180.388 193.99 176.141 196.37C178.988 197.07 181.344 198.423 183.211 200.43C185.078 202.39 186.011 204.863 186.011 207.85C186.011 213.45 183.934 217.79 179.781 220.87C175.628 223.903 170.494 225.42 164.381 225.42C158.268 225.42 152.971 224.207 148.491 221.78C149.938 216.74 150.661 209.95 150.661 201.41C150.661 192.823 150.078 184.867 148.911 177.54ZM159.481 217.86C161.534 218.513 163.588 218.84 165.641 218.84C168.861 218.84 171.521 218.047 173.621 216.46C175.721 214.827 176.771 212.54 176.771 209.6C176.771 204 173.738 201.2 167.671 201.2C164.778 201.2 161.838 201.807 158.851 203.02C158.851 207.733 159.061 212.68 159.481 217.86ZM158.781 196.86C159.434 196.72 160.391 196.557 161.651 196.37C162.958 196.183 163.961 196.02 164.661 195.88C165.361 195.74 166.224 195.53 167.251 195.25C168.324 194.97 169.141 194.643 169.701 194.27C170.308 193.85 170.914 193.337 171.521 192.73C172.688 191.563 173.271 189.86 173.271 187.62C173.271 183.28 170.681 181.11 165.501 181.11C163.821 181.11 161.768 181.39 159.341 181.95C158.968 191.517 158.781 196.487 158.781 196.86ZM191.733 209.11C191.733 212.47 192.27 215.13 193.343 217.09C194.416 219.003 196.213 219.96 198.733 219.96C201.253 219.96 203.213 219.12 204.613 217.44C206.06 215.713 206.783 213.637 206.783 211.21C208.37 211.21 209.746 211.607 210.913 212.4C212.08 213.193 212.663 214.29 212.663 215.69C212.663 218.583 211.123 221.01 208.043 222.97C204.963 224.883 201.72 225.84 198.313 225.84C192.993 225.84 189.143 224.417 186.763 221.57C184.383 218.677 183.193 214.407 183.193 208.76C183.193 203.113 184.78 198.377 187.953 194.55C191.173 190.677 195.443 188.74 200.763 188.74C204.403 188.74 207.32 189.58 209.513 191.26C211.753 192.893 212.873 195.46 212.873 198.96C212.873 202.413 211.286 205.027 208.113 206.8C204.986 208.527 201.16 209.39 196.633 209.39C195.046 209.39 193.413 209.297 191.733 209.11ZM191.803 203.58C193.203 203.86 194.673 204 196.213 204C199.573 204 202.396 203.37 204.683 202.11C204.963 200.99 205.103 200.103 205.103 199.45C205.103 197.817 204.52 196.58 203.353 195.74C202.186 194.9 200.576 194.48 198.523 194.48C196.516 194.48 194.696 195.133 193.063 196.44C192.223 198.867 191.803 201.247 191.803 203.58ZM218.776 209.11C218.776 212.47 219.313 215.13 220.386 217.09C221.459 219.003 223.256 219.96 225.776 219.96C228.296 219.96 230.256 219.12 231.656 217.44C233.103 215.713 233.826 213.637 233.826 211.21C235.413 211.21 236.789 211.607 237.956 212.4C239.123 213.193 239.706 214.29 239.706 215.69C239.706 218.583 238.166 221.01 235.086 222.97C232.006 224.883 228.763 225.84 225.356 225.84C220.036 225.84 216.186 224.417 213.806 221.57C211.426 218.677 210.236 214.407 210.236 208.76C210.236 203.113 211.823 198.377 214.996 194.55C218.216 190.677 222.486 188.74 227.806 188.74C231.446 188.74 234.363 189.58 236.556 191.26C238.796 192.893 239.916 195.46 239.916 198.96C239.916 202.413 238.329 205.027 235.156 206.8C232.029 208.527 228.203 209.39 223.676 209.39C222.089 209.39 220.456 209.297 218.776 209.11ZM218.846 203.58C220.246 203.86 221.716 204 223.256 204C226.616 204 229.439 203.37 231.726 202.11C232.006 200.99 232.146 200.103 232.146 199.45C232.146 197.817 231.563 196.58 230.396 195.74C229.229 194.9 227.619 194.48 225.566 194.48C223.559 194.48 221.739 195.133 220.106 196.44C219.266 198.867 218.846 201.247 218.846 203.58Z" fill="white"/>
</svg>
