<svg width="35" height="36" viewBox="0 0 35 36" fill="none" xmlns="http://www.w3.org/2000/svg">
<path d="M21.5776 4.95026C22.6235 4.95026 23.6694 4.95026 24.7119 4.95026C26.3832 4.95026 28.0546 4.95026 29.726 4.95026C30.1088 4.95026 30.4882 4.95026 30.871 4.95026C30.642 4.71471 30.4164 4.48268 30.1874 4.24713C30.1874 5.32291 30.1874 6.39869 30.1874 7.47096C30.1874 9.1901 30.1874 10.9092 30.1874 12.6284C30.1874 13.0221 30.1874 13.4124 30.1874 13.8061C30.1874 14.1753 30.5019 14.5268 30.871 14.5092C31.2402 14.4917 31.5546 14.1999 31.5546 13.8061C31.5546 12.7303 31.5546 11.6546 31.5546 10.5823C31.5546 8.86315 31.5546 7.14401 31.5546 5.42487C31.5546 5.03112 31.5546 4.64088 31.5546 4.24713C31.5546 3.86744 31.2402 3.54401 30.871 3.54401C29.8251 3.54401 28.7792 3.54401 27.7368 3.54401C26.0654 3.54401 24.394 3.54401 22.7226 3.54401C22.3398 3.54401 21.9604 3.54401 21.5776 3.54401C21.2187 3.54401 20.8769 3.86744 20.894 4.24713C20.9077 4.62682 21.1913 4.95026 21.5776 4.95026Z" fill="#009975"/>
<path d="M15.9312 20.6052C16.4439 20.0778 16.9532 19.554 17.4659 19.0267C18.6929 17.7646 19.92 16.5025 21.1505 15.2368C22.6373 13.7075 24.1207 12.1818 25.6075 10.6525C26.8927 9.33059 28.1744 8.01223 29.4595 6.69036C30.0816 6.05051 30.7208 5.4177 31.3326 4.7638C31.3428 4.75325 31.3497 4.74622 31.3599 4.73567C31.6129 4.47552 31.6334 3.99739 31.3599 3.74075C31.0865 3.48411 30.6627 3.46302 30.3927 3.74075C29.88 4.26809 29.3707 4.79192 28.858 5.31927C27.6309 6.58137 26.4039 7.84348 25.1734 9.1091C23.6866 10.6384 22.2032 12.1642 20.7164 13.6935C19.4312 15.0153 18.1495 16.3337 16.8643 17.6556C16.2423 18.2954 15.6031 18.9282 14.9913 19.5821C14.981 19.5927 14.9742 19.5997 14.9639 19.6103C14.711 19.8704 14.6905 20.3485 14.9639 20.6052C15.2374 20.8653 15.6612 20.8829 15.9312 20.6052Z" fill="#009975"/>
<path d="M30.1909 19.4344C30.1909 20.3555 30.1909 21.2766 30.1909 22.1942C30.1909 23.836 30.1909 25.4778 30.1909 27.1196C30.1909 27.6961 30.1909 28.2727 30.1909 28.8492C30.1909 28.9828 30.1909 29.1199 30.1909 29.2535C30.1909 29.2711 30.1909 29.2887 30.1909 29.3098C30.1909 29.3766 30.1875 29.4399 30.1841 29.5031C30.1841 29.5207 30.1807 29.5348 30.1807 29.5524C30.1738 29.6156 30.1738 29.6156 30.1807 29.5559C30.2217 29.475 30.1807 29.5383 30.1738 29.5805C30.1636 29.6297 30.1021 30.0024 30.0542 30.0094C30.0576 30.0094 30.1157 29.8723 30.0713 29.9707C30.0542 30.0059 30.0405 30.041 30.0234 30.0762C29.9927 30.136 29.9585 30.1992 29.9243 30.2555C29.9106 30.2766 29.8423 30.4067 29.8218 30.4067C29.8457 30.4067 29.9209 30.2906 29.832 30.3891C29.8013 30.4242 29.7739 30.4594 29.7432 30.491C29.6987 30.5403 29.6509 30.5895 29.5996 30.6352C29.5791 30.6563 29.5552 30.6738 29.5312 30.6949C29.4321 30.7828 29.5654 30.6703 29.5654 30.6703C29.5688 30.7266 29.2339 30.8813 29.1826 30.9094C29.1689 30.9164 29.1108 30.9516 29.1006 30.9481C29.1177 30.9551 29.2339 30.8988 29.1382 30.9305C29.0732 30.9516 29.0083 30.9762 28.9434 30.9938C28.875 31.0113 28.8101 31.0254 28.7417 31.0395C28.6084 31.0676 28.7861 31.036 28.7861 31.036C28.7759 31.0535 28.6733 31.0465 28.646 31.05C28.5913 31.0535 28.54 31.0535 28.4854 31.0535C28.3145 31.0535 28.147 31.0535 27.9761 31.0535C27.0566 31.0535 26.1372 31.0535 25.2178 31.0535C23.7788 31.0535 22.3433 31.0535 20.9043 31.0535C19.25 31.0535 17.5957 31.0535 15.938 31.0535C14.3862 31.0535 12.8311 31.0535 11.2793 31.0535C10.1309 31.0535 8.979 31.0535 7.83056 31.0535C7.34521 31.0535 6.85303 31.0781 6.36767 31.05C6.33691 31.0465 6.30615 31.0465 6.27539 31.043C6.21387 31.0395 6.20019 31.0043 6.31982 31.05C6.2583 31.0254 6.17969 31.0219 6.11816 31.0078C6.05322 30.9903 5.98486 30.9692 5.91992 30.9481C5.90967 30.9446 5.83447 30.9199 5.83447 30.9164C5.91992 30.9551 5.94043 30.9621 5.89258 30.941C5.87207 30.9305 5.85156 30.9235 5.83105 30.9129C5.70801 30.8531 5.59863 30.7793 5.48584 30.702C5.40039 30.6457 5.50635 30.7301 5.5166 30.7301C5.50976 30.7301 5.45849 30.6809 5.44824 30.6703C5.39355 30.6211 5.33887 30.5684 5.2876 30.5121C5.27051 30.4946 5.13721 30.3645 5.14062 30.3399C5.14062 30.3399 5.23974 30.484 5.16797 30.3715C5.15088 30.3469 5.13379 30.3223 5.1167 30.2942C5.0791 30.2379 5.04492 30.1781 5.01416 30.1149C4.99707 30.0797 4.97998 30.0481 4.96289 30.0129C4.95605 29.9989 4.94922 29.9848 4.94238 29.9707C4.91162 29.9004 4.91846 29.9145 4.95947 30.0094C4.91846 30.0024 4.85693 29.6684 4.8501 29.6262C4.84668 29.6121 4.82275 29.5137 4.82959 29.5102C4.83301 29.5102 4.84668 29.6965 4.83642 29.5559C4.82959 29.475 4.82617 29.3942 4.82617 29.3133C4.82617 29.1903 4.82617 29.0672 4.82617 28.9442C4.82617 28.0723 4.82617 27.2004 4.82617 26.3285C4.82617 24.8906 4.82617 23.4528 4.82617 22.0149C4.82617 20.3274 4.82617 18.6399 4.82617 16.9489C4.82617 15.3211 4.82617 13.6899 4.82617 12.0621C4.82617 10.8211 4.82617 9.5801 4.82617 8.33557C4.82617 7.79065 4.82275 7.24573 4.82617 6.70081C4.82617 6.60588 4.83301 6.51448 4.83984 6.42307C4.84668 6.3176 4.80224 6.59885 4.83984 6.44416C4.84668 6.41252 4.8501 6.38088 4.85693 6.35276C4.8706 6.29299 4.88428 6.22971 4.90478 6.16995C4.91504 6.13127 4.92871 6.09612 4.93896 6.05745C4.97656 5.93791 4.91504 6.03284 4.92871 6.07502C4.91504 6.03635 5.00732 5.90627 5.02783 5.8676C5.05517 5.81487 5.08935 5.76213 5.12012 5.7094C5.14062 5.67776 5.16455 5.64612 5.18506 5.61448C5.22949 5.5301 5.07568 5.74456 5.1748 5.62854C5.26367 5.52659 5.35254 5.42463 5.45508 5.33323C5.46875 5.32268 5.58496 5.24182 5.48926 5.30159C5.40381 5.35432 5.48926 5.30159 5.50976 5.28752C5.56445 5.24885 5.62256 5.21018 5.68066 5.17502C5.73877 5.13987 5.80029 5.10823 5.8584 5.0801C5.89941 5.05901 5.96094 5.06604 5.8789 5.06956C5.82422 5.09416 5.82422 5.09416 5.88232 5.06956C5.90283 5.06252 5.92334 5.05198 5.94726 5.04495C5.98144 5.0344 6.30957 4.9219 6.32666 4.95002C6.31982 4.93948 6.1626 4.9676 6.30615 4.95354C6.34375 4.95002 6.38476 4.94651 6.42236 4.94651C6.45312 4.94651 6.4873 4.94651 6.51806 4.94299C6.54199 4.94299 6.5625 4.94299 6.58642 4.94299C6.72656 4.94299 6.87012 4.94299 7.01025 4.94299C8.3706 4.94299 9.73437 4.94299 11.0947 4.94299C12.5269 4.94299 13.9624 4.94299 15.3945 4.94299C15.6372 4.94299 15.8765 4.94299 16.1191 4.94299C16.478 4.94299 16.8198 4.61956 16.8027 4.23987C16.7856 3.86018 16.502 3.53674 16.1191 3.53674C15.2031 3.53674 14.2871 3.53674 13.3745 3.53674C11.7646 3.53674 10.1548 3.53674 8.54492 3.53674C7.99805 3.53674 7.45117 3.53674 6.9043 3.53674C6.3164 3.53674 5.75586 3.58596 5.20898 3.8426C4.14258 4.34534 3.46582 5.49495 3.45898 6.69026C3.45898 6.84846 3.45898 7.00666 3.45898 7.16487C3.45898 8.10002 3.45898 9.03518 3.45898 9.97034C3.45898 11.468 3.45898 12.9656 3.45898 14.4633C3.45898 16.1754 3.45898 17.891 3.45898 19.6031C3.45898 21.2203 3.45898 22.8375 3.45898 24.4547C3.45898 25.643 3.45898 26.8278 3.45898 28.016C3.45898 28.6172 3.42138 29.2324 3.50683 29.8301C3.59912 30.4805 3.93066 31.1063 4.38867 31.5598C4.90478 32.0696 5.5542 32.3578 6.2583 32.4387C6.44971 32.4598 6.64453 32.4528 6.83935 32.4528C7.67676 32.4528 8.51416 32.4528 9.34814 32.4528C10.7598 32.4528 12.168 32.4528 13.5796 32.4528C15.2441 32.4528 16.9053 32.4528 18.5698 32.4528C20.1626 32.4528 21.752 32.4528 23.3447 32.4528C24.5615 32.4528 25.7749 32.4528 26.9917 32.4528C27.4976 32.4528 28 32.4563 28.5059 32.4528C29.7876 32.4422 30.8882 31.6301 31.3667 30.4207C31.5649 29.9215 31.5684 29.3977 31.5684 28.8703C31.5684 27.4746 31.5684 26.0789 31.5684 24.6832C31.5684 23.1856 31.5684 21.6914 31.5684 20.1938C31.5684 19.9406 31.5684 19.684 31.5684 19.4309C31.5684 19.0617 31.2539 18.7102 30.8848 18.7278C30.502 18.7453 30.1909 19.0371 30.1909 19.4344Z" fill="#009975"/>
</svg>
