<svg xmlns="http://www.w3.org/2000/svg" xmlns:xlink="http://www.w3.org/1999/xlink" version="1.1" x="0px" y="0px" viewBox="0 0 50 50" enable-background="new 0 0 50 50" xml:space="preserve"><g><g><path d="M15.6,13.4c-1.8,0-2.3,1.8-2.3,3.6c0,1.8,0.5,3.6,2.3,3.6c1.8,0,2.3-1.8,2.3-3.6C18,15.2,17.4,13.4,15.6,13.4z"/><path d="M43.2,1H6.8c-0.5,0-1,0.4-1,1v24.5c0,0.5,0.4,1,1,1h36.4c0.5,0,1-0.4,1-1V2C44.1,1.4,43.7,1,43.2,1z M15.6,21.9    c-2.8,0-3.9-2.2-3.9-5c0-2.8,1.1-5,3.9-5c2.8,0,3.9,2.2,3.9,5C19.5,19.7,18.4,21.9,15.6,21.9z M20.6,7.7h-10c-0.5,0-1-0.4-1-1    c0-0.5,0.4-1,1-1h10c0.5,0,1,0.4,1,1C21.6,7.3,21.2,7.7,20.6,7.7z M25,20.7c-0.7,0-1.3-0.6-1.3-1.3c0-0.7,0.6-1.3,1.3-1.3    c0.7,0,1.3,0.6,1.3,1.3C26.3,20.1,25.7,20.7,25,20.7z M25,14.4c-0.7,0-1.3-0.6-1.3-1.3c0-0.7,0.6-1.3,1.3-1.3    c0.7,0,1.3,0.6,1.3,1.3C26.3,13.8,25.7,14.4,25,14.4z M37.6,21.7l-6.6,0l0-1.4c2.1-2.2,3.6-3.5,4.3-4.5c0.9-1.3,0.2-2.5-1.1-2.5    c-0.8,0-1.4,0.4-2,1.2l-1.3-0.8c1-1.4,2-1.9,3.4-1.9c2.5,0,3.7,2.4,2.6,4.3c-0.6,1-2,2.3-3.7,4l4.4,0L37.6,21.7z M39.3,7.7    C39.3,7.7,39.3,7.7,39.3,7.7l-10,0c-0.5,0-1-0.4-1-1c0-0.5,0.4-1,1-1c0,0,0,0,0,0l10,0c0.5,0,1,0.4,1,1    C40.2,7.3,39.8,7.7,39.3,7.7z"/></g><path d="M43.2,47.1H26V33.7h4.8c0.4,0,0.8-0.3,0.9-0.7l1-3.7h-2L30,31.8H20l-0.7-2.5h-2l1,3.7c0.1,0.4,0.5,0.7,0.9,0.7H24v13.4H6.8   c-0.5,0-1,0.4-1,1c0,0.5,0.4,1,1,1h36.4c0.5,0,1-0.4,1-1C44.1,47.5,43.7,47.1,43.2,47.1z"/></g></svg>